<svg width="70" height="24" viewBox="0 0 70 24" fill="none" xmlns="http://www.w3.org/2000/svg">
<path d="M24.52 23L24.488 0.599998H21.064L12.328 15.448L3.432 0.599998H0.00800014V23H3.976V8.344L11.336 20.44H13.192L20.552 8.152L20.584 23H24.52ZM46.1865 23H51.0505L41.0665 10.616L50.4745 0.599998H45.8025L34.7305 12.088V0.599998H30.5705V23H34.7305V17.272L38.2825 13.624L46.1865 23ZM60.3583 23.32C66.5023 23.32 69.4143 20.248 69.4143 16.664C69.4143 8.44 56.1343 11.544 56.1343 6.776C56.1343 5.08 57.5423 3.736 60.9983 3.736C62.9503 3.736 65.1583 4.312 67.1743 5.496L68.4862 2.264C66.5343 0.983999 63.7183 0.279999 61.0303 0.279999C54.8863 0.279999 52.0063 3.352 52.0063 6.968C52.0063 15.288 65.3183 12.12 65.3183 16.952C65.3183 18.616 63.8463 19.864 60.3583 19.864C57.6063 19.864 54.7583 18.84 52.9663 17.4L51.5263 20.632C53.3823 22.232 56.8703 23.32 60.3583 23.32Z" fill="white"/>
</svg>
